<svg width="6rem" height="6rem" viewBox="0 0 150 150" preserveAspectRatio="xMidYMid meet" xmlns="http://www.w3.org/2000/svg" xmlns:xlink="http://www.w3.org/1999/xlink" >
<polygon points="25,25 125,25 125,125 25,125" fill="#666" />
<polygon points="75,0 150,75 75,150 0,75" fill="#333" />
<polygon points="100,0 150,100 40,140 10,40" fill="#ccc" />
<polygon points="50,10 140,50 100,140 10,100" fill="#999" />
<circle cx="75" cy="90" fill="cornsilk" stroke="black" stroke-width="1" r="45"/>
<circle cx="75" cy="55" fill="cornsilk" stroke="black" stroke-width="1" r="40"/>
<circle cx="55" cy="50" fill="white" stroke="black" stroke-width="1" r="10"/>
<circle cx="95" cy="50" fill="white" stroke="black" stroke-width="1" r="10"/>
<circle cx="55" cy="50" fill="black" r="6"/>
<circle cx="95" cy="50" fill="black" r="6"/>
<polygon stroke="black" fill="firebrick" stroke-width="1"  points="65,60 75,25 85,60 75,100"/>
<line x1="65" y1="60" x2="85" y2="60" stroke="black" stroke-width="2"/>
</svg>